<?xml version="1.0" encoding="UTF-8" standalone="no"?>
<!-- Created with Inkscape (http://www.inkscape.org/) -->

<svg
   width="128.79424mm"
   height="80.495926mm"
   viewBox="0 0 128.79424 80.495926"
   version="1.1"
   id="svg1"
   inkscape:export-filename="bank-placeholder.png"
   inkscape:export-xdpi="201.94693"
   inkscape:export-ydpi="201.94693"
   inkscape:version="1.4.3 (0d15f75, 2025-12-25)"
   sodipodi:docname="bank.svg"
   xmlns:inkscape="http://www.inkscape.org/namespaces/inkscape"
   xmlns:sodipodi="http://sodipodi.sourceforge.net/DTD/sodipodi-0.dtd"
   xmlns="http://www.w3.org/2000/svg"
   xmlns:svg="http://www.w3.org/2000/svg">
  <sodipodi:namedview
     id="namedview1"
     pagecolor="#ffffff"
     bordercolor="#000000"
     borderopacity="0.25"
     inkscape:showpageshadow="2"
     inkscape:pageopacity="0.0"
     inkscape:pagecheckerboard="0"
     inkscape:deskcolor="#d1d1d1"
     inkscape:document-units="mm"
     inkscape:zoom="0.68862935"
     inkscape:cx="95.84256"
     inkscape:cy="228.7152"
     inkscape:window-width="1920"
     inkscape:window-height="991"
     inkscape:window-x="-9"
     inkscape:window-y="-9"
     inkscape:window-maximized="1"
     inkscape:current-layer="layer1" />
  <defs
     id="defs1">
    <pattern
       id="EMFhbasepattern"
       patternUnits="userSpaceOnUse"
       width="6"
       height="6"
       x="0"
       y="0" />
  </defs>
  <g
     inkscape:label="Layer 1"
     inkscape:groupmode="layer"
     id="layer1"
     transform="translate(-79.676978,-87.821776)">
    <path
       style="fill:#000000"
       d="m 174.2975,167.91907 c -3.14964,-0.52937 -8.36987,-1.6699 -11.18785,-2.44436 -1.02006,-0.28033 -3.04434,-0.83333 -4.4984,-1.22888 -10.31084,-2.80487 -15.67729,-5.40497 -19.3265,-9.36389 -1.32713,-1.43977 -1.60062,-1.59397 -2.11422,-1.19202 -0.32444,0.25391 -1.54179,1.24157 -2.70522,2.1948 -2.80035,2.2944 -6.48458,4.01918 -9.16531,4.29076 -4.74371,0.48057 -8.74307,-1.13328 -29.148048,-11.76205 -2.570048,-1.33871 -6.06149,-4.40567 -7.794495,-6.84686 -1.741118,-2.45261 -5.178027,-9.13719 -7.161354,-13.9284 -2.148852,-5.19107 -2.021411,-9.94377 0.404118,-15.07091 1.180559,-2.4955 3.999317,-6.13564 9.170447,-11.84271 9.406712,-10.381636 14.593782,-13.476132 21.486832,-12.818591 3.6823,0.351262 11.22264,2.304209 18.03064,4.669934 6.528,2.268426 9.51297,3.686488 11.32018,5.377843 l 1.15082,1.077046 1.84543,-2.026794 c 3.88009,-4.261417 6.86869,-6.335175 11.01043,-7.64002 2.15199,-0.677981 3.21119,-0.773275 8.28375,-0.74527 8.05625,0.04448 21.03891,1.97525 27.25022,4.052634 6.27815,2.099737 10.96411,5.602255 13.07908,9.775958 2.31192,4.56235 4.21055,15.98173 4.23027,25.44305 l 0.0129,6.16875 -1.97108,4.77557 c -2.46492,5.97208 -7.462,15.88147 -9.7682,19.37067 -2.02614,3.06549 -5.20857,6.38527 -7.29095,7.60563 -3.899,2.28497 -9.47381,3.06103 -15.14344,2.10811 z m 9.05953,-1.64209 c 4.89619,-1.01792 9.2051,-4.55771 12.87793,-10.57928 2.49094,-4.08387 7.89988,-15.27619 9.22788,-19.09454 1.52488,-4.38445 1.79275,-6.51396 1.41081,-11.21567 -0.83819,-10.31812 -2.4831,-18.89775 -4.26359,-22.23829 -2.82443,-5.299174 -9.56349,-8.906601 -20.20506,-10.8158 -9.64115,-1.729713 -15.51431,-2.315936 -20.77029,-2.073164 -7.98144,0.36866 -12.22405,2.96077 -18.43785,11.264994 -10.31738,13.78831 -13.31696,21.96948 -11.41862,31.1436 0.9452,4.56791 3.96042,13.4311 5.5695,16.3715 4.04072,7.38393 9.74514,10.56156 26.55101,14.79015 10.46133,2.63221 15.51108,3.26712 19.45828,2.4465 z m -12.58453,-4.97196 c -5.09984,-1.78266 -6.59482,-8.03469 -1.92124,-8.03469 3.64764,0 7.30585,3.80341 6.55099,6.811 -0.36245,1.44409 -2.43334,1.99145 -4.62975,1.22369 z m 12.19082,-7.24156 c -0.8074,-3.24741 -1.54849,-6.22163 -1.64687,-6.60938 -0.14841,-0.58495 -0.11847,-0.60975 0.17581,-0.14562 0.37521,0.59178 2.63529,9.09574 3.01314,11.3375 0.49286,2.92415 -0.15257,1.00616 -1.54208,-4.5825 z m 5.82571,2.89679 c -1.81056,-1.81055 -0.6071,-9.51087 1.61766,-10.35058 1.85553,-0.70034 2.98878,1.45528 2.62,4.98364 -0.45101,4.31499 -2.58586,7.01875 -4.23766,5.36694 z M 145.745,154.54327 c -3.7284,-1.62877 -5.78241,-5.99499 -3.51817,-7.47857 3.30943,-2.16843 10.3356,4.49945 7.6116,7.22345 -0.85472,0.85472 -2.48789,0.9565 -4.09343,0.25512 z m 20.0925,-7.14518 c -2.60157,-1.36909 -4.65982,-4.45097 -4.19895,-6.28721 0.21727,-0.86567 1.70814,-1.94276 2.68332,-1.93858 2.13485,0.009 5.37462,2.14725 6.47345,4.27216 0.71515,1.38295 0.631,3.0033 -0.19907,3.83337 -0.86852,0.86853 -3.22379,0.92804 -4.75875,0.12026 z m -23.44353,-5.73738 c -4.1812,-1.27058 -7.0826,-5.65601 -4.99309,-7.54699 0.78067,-0.7065 2.84331,-0.75662 4.38982,-0.10667 1.52216,0.63972 3.9936,3.38478 4.29891,4.77488 0.27166,1.23684 -0.51149,2.8559 -1.38141,2.8559 -0.27048,0 -0.70305,0.0656 -0.96125,0.14568 -0.2582,0.0801 -0.86704,0.0249 -1.35298,-0.1228 z m 51.21103,-3.09223 c -1.45173,-2.21676 -0.28973,-8.81413 1.75453,-9.96155 0.89097,-0.50008 1.00635,-0.48363 1.73773,0.24774 0.60305,0.60305 0.81642,1.30213 0.92687,3.03674 0.33314,5.23177 -2.53128,9.55975 -4.41913,6.67707 z m -36.58,-7.04326 c -6.53224,-1.49025 -12.5541,-2.77094 -14.805,-3.14863 l -2.82,-0.47318 2.82,0.15221 c 2.63564,0.14226 11.40646,1.97467 14.98125,3.1299 1.49051,0.48167 1.37997,0.69473 -0.17625,0.3397 z m 0.58839,-8.7694 c -5.14854,-1.38533 -8.97698,-6.15752 -8.30601,-10.35353 0.18894,-1.18159 0.12865,-1.43195 -0.34483,-1.43195 -0.72052,0 -0.75243,-0.65858 -0.0451,-0.93003 0.29081,-0.11159 4.13747,0.51587 8.54813,1.39435 4.41066,0.87849 10.55738,1.93764 13.65938,2.35367 3.102,0.41603 5.84908,0.82378 6.10461,0.9061 0.33071,0.10655 0.20835,0.4296 -0.42458,1.12092 -0.48905,0.53418 -1.45294,1.62645 -2.14197,2.42727 -3.33586,3.87705 -11.4406,6.02245 -17.04967,4.5132 z m 9.50885,-1.92401 c 1.23215,-0.39244 2.79545,-1.01519 3.47401,-1.38388 l 1.23375,-0.67035 -1.65496,-0.73903 c -0.91023,-0.40647 -2.50987,-0.91072 -3.55476,-1.12056 -1.68886,-0.33917 -2.06127,-0.29916 -3.35412,0.3604 -1.78522,0.91075 -1.95466,0.91936 -1.50351,0.0764 0.29719,-0.55532 0.21643,-0.69229 -0.4875,-0.82686 -1.20658,-0.23065 -5.04373,0.33026 -6.82677,0.99793 -1.45973,0.5466 -1.4955,0.59493 -0.91509,1.23628 0.33221,0.36709 1.55668,1.14349 2.72104,1.72533 1.89376,0.94632 2.46033,1.05789 5.37234,1.05789 2.29546,0 3.91588,-0.21039 5.49557,-0.71353 z m 19.33651,2.06138 c 0,-0.34749 5.23049,-8.88215 7.19894,-11.7466 2.50868,-3.6506 1.73204,-2.004 -1.6802,3.56225 -3.00171,4.89658 -5.51874,8.62936 -5.51874,8.18435 z m 12.10756,-3.31907 c -1.32129,-2.01654 -0.75066,-7.62318 0.94883,-9.32267 1.81878,-1.81878 3.5126,-0.16159 3.50915,3.43326 -0.003,2.63047 -0.50479,4.39843 -1.62917,5.73468 -1.10179,1.30941 -2.03866,1.36065 -2.82881,0.15473 z M 180.58002,108.8281 c -0.2403,-0.24029 -0.27711,-0.8348 -0.10025,-1.61897 0.34207,-1.51668 -0.18172,-3.18279 -1.09137,-3.4715 -1.06856,-0.33915 -2.96692,0.79619 -4.19831,2.51087 -1.07971,1.50348 -2.06559,1.90949 -2.37559,0.97833 -0.18962,-0.56959 2.01336,-3.33697 3.40062,-4.27184 1.15735,-0.77994 3.19119,-1.0465 4.41159,-0.57819 1.35575,0.52025 2.14641,4.45023 1.23714,6.14921 -0.41395,0.77347 -0.73655,0.84938 -1.28383,0.30209 z m -23.37036,-4.29089 c 0.005,-0.24234 0.1513,-1.05656 0.32595,-1.80938 0.87587,-3.775411 -2.09947,-4.324348 -5.0098,-0.92428 -0.84559,0.98788 -1.47007,1.4285 -1.82923,1.29068 -0.86455,-0.33176 -0.64279,-1.17899 0.6967,-2.66164 2.32009,-2.568063 5.41115,-3.28612 7.05774,-1.639526 0.68784,0.687835 0.86523,1.226466 0.86523,2.627166 0,0.96906 -0.18409,2.16596 -0.40908,2.65977 -0.4158,0.91258 -1.71287,1.26193 -1.69751,0.45721 z m -30.09691,53.49663 c 2.09483,-0.62209 5.26234,-2.61607 7.70475,-4.8502 l 1.7625,-1.6122 -0.86315,-1.5984 -0.86315,-1.5984 -1.50835,1.39035 c -0.91327,0.84182 -1.85424,1.39034 -2.38507,1.39034 -2.45741,0 -1.96087,-4.94904 0.75195,-7.49471 l 1.03737,-0.97346 -0.98852,-3.05383 c -0.54369,-1.67961 -1.08747,-3.58127 -1.20841,-4.22592 -0.24573,-1.30985 -0.68769,-1.52252 -1.01578,-0.48878 -0.32873,1.03572 -2.56514,2.8417 -3.51898,2.8417 -1.81267,0 -2.39899,-1.77391 -1.53712,-4.65058 0.54381,-1.81506 2.91729,-4.51441 3.96942,-4.51441 0.74594,0 0.81355,-0.18814 1.01735,-2.83094 0.13693,-1.77561 0.66429,-4.16608 1.41467,-6.41251 l 1.19636,-3.58158 -2.62798,2.79939 -2.62798,2.79939 2.87581,-3.525 c 1.58169,-1.93875 3.45984,-4.44068 4.17368,-5.55984 0.71383,-1.11916 2.76239,-4.26199 4.55235,-6.98408 l 3.25447,-4.94924 -0.96322,-0.864178 c -3.46606,-3.109666 -17.85569,-8.217689 -27.28554,-9.685802 -6.50972,-1.013485 -10.35239,0.82477 -18.0602,8.639618 -4.56073,4.624072 -9.480798,10.355502 -11.190219,13.035602 -2.895354,4.53945 -3.545964,9.62051 -1.839545,14.36628 1.384188,3.84961 5.817644,12.50168 7.663399,14.95544 2.796374,3.71753 5.10227,5.21443 17.847635,11.58601 12.1521,6.07501 15.00863,6.91291 19.2615,5.64994 z m -11.78621,-4.29424 c -0.63853,-0.3147 -1.79629,-1.29395 -2.5728,-2.17611 -2.76193,-3.13772 -0.92224,-5.31419 2.43577,-2.88167 2.98042,2.15901 3.9491,5.7203 1.53353,5.63799 -0.12955,-0.004 -0.75797,-0.26551 -1.3965,-0.58021 z m 5.98199,-4.05937 c -1.64866,-4.22409 -2.2924,-6.72383 -1.0774,-4.1837 0.97689,2.0423 2.85303,7.4634 2.65239,7.66404 -0.0857,0.0857 -0.79444,-1.48046 -1.57499,-3.48034 z M 94.423294,143.8082 c -1.794504,-1.13859 -3.139547,-3.01394 -3.139547,-4.37738 0,-1.26414 0.904866,-1.45476 2.724408,-0.57394 1.990084,0.96338 3.694469,3.22403 3.54914,4.70748 -0.14275,1.45712 -1.103911,1.5319 -3.134001,0.24384 z m 6.858416,-1.55349 c -1.854006,-1.23905 -3.590131,-3.93607 -3.195582,-4.96425 0.260564,-0.67902 1.687217,-0.77666 2.826422,-0.19345 2.45871,1.25874 4.67658,4.67763 3.75488,5.78822 -0.65144,0.78493 -1.50586,0.62581 -3.38572,-0.63052 z m 9.79223,-0.89204 c -1.12972,-0.1853 -4.52183,-3.54171 -4.82861,-4.77779 -0.58938,-2.37479 2.00564,-2.55543 4.48836,-0.31245 3.01625,2.72501 3.20577,5.56026 0.34025,5.09024 z m -21.023955,-8.82496 c -3.194098,-1.97033 -4.912993,-6.05737 -2.547564,-6.05737 2.347716,0 6.292441,4.3687 5.330423,5.90334 -0.541493,0.8638 -1.542444,0.91921 -2.782859,0.15403 z m 4.758762,-7.76415 c -5.63549,-2.45413 -9.002479,-4.14677 -7.402501,-3.72135 1.036956,0.27571 10.119374,4.27576 12.161251,5.35601 2.693163,1.42481 0.674403,0.73136 -4.75875,-1.63466 z m 8.107503,-4.13211 c -4.066969,-1.12214 -6.435627,-3.87173 -6.485306,-7.52827 -0.01744,-1.28363 0.219704,-2.55637 0.657006,-3.52613 0.669114,-1.48383 0.669589,-1.52825 0.0214,-2.00221 -0.725999,-0.53086 -0.713436,-0.56624 0.408094,-1.14926 0.831308,-0.43214 2.226299,-0.54163 2.226299,-0.17473 0,0.12403 -0.251297,0.40927 -0.558439,0.63386 -0.486954,0.35607 -0.347892,0.64251 1.086366,2.23775 3.25664,3.62216 9.11861,5.30312 15.46163,4.43371 1.03675,-0.1421 1.63545,-0.40018 1.63545,-0.705 0,-0.72013 0.98006,-0.57919 1.3976,0.20099 0.52537,0.98167 0.45994,1.89757 -0.11967,1.67516 -0.27185,-0.10432 -1.08424,0.4289 -1.85063,1.21469 -3.89775,3.99641 -9.51418,5.89399 -13.8798,4.68944 z m 5.51656,-1.35033 c 1.86752,-0.49724 5.41094,-2.25294 5.41094,-2.68101 0,-0.34344 -2.53707,-1.05791 -3.74215,-1.05383 -0.55913,0.002 -1.84938,0.39116 -2.86723,0.86503 -1.9726,0.91838 -2.1929,0.83457 -1.26994,-0.48314 l 0.58067,-0.82903 -3.1363,0.15535 c -1.72497,0.0854 -3.50812,0.35746 -3.962563,0.60448 l -0.82626,0.44914 0.82626,0.8846 c 2.111983,2.26112 5.436383,3.03369 8.986573,2.08841 z m 13.16521,-12.72791 c -0.94946,-1.14403 0.51853,-4.2784 2.47851,-5.29194 3.00027,-1.551502 4.59523,0.5428 2.62336,3.44466 -1.43265,2.10833 -4.08745,3.06958 -5.10187,1.84728 z m -16.92851,-4.42263 c -0.8156,-1.52397 1.25028,-4.698161 3.64544,-5.601173 3.17984,-1.198845 3.16289,3.268832 -0.0206,5.432073 -1.61149,1.09503 -3.09233,1.16411 -3.62484,0.1691 z"
       id="path1" />
  </g>
</svg>
