<?xml version="1.0" encoding="UTF-8" standalone="no"?>
<!-- Created with Inkscape (http://www.inkscape.org/) -->

<svg
   width="298.38333mm"
   height="290.18719mm"
   viewBox="0 0 298.38334 290.1872"
   version="1.1"
   id="svg1"
   inkscape:export-filename="bank-placeholder.png"
   inkscape:export-xdpi="201.94693"
   inkscape:export-ydpi="201.94693"
   inkscape:version="1.4.3 (0d15f75, 2025-12-25)"
   sodipodi:docname="piggy.svg"
   xml:space="preserve"
   xmlns:inkscape="http://www.inkscape.org/namespaces/inkscape"
   xmlns:sodipodi="http://sodipodi.sourceforge.net/DTD/sodipodi-0.dtd"
   xmlns="http://www.w3.org/2000/svg"
   xmlns:svg="http://www.w3.org/2000/svg"><sodipodi:namedview
     id="namedview1"
     pagecolor="#ffffff"
     bordercolor="#000000"
     borderopacity="0.25"
     inkscape:showpageshadow="2"
     inkscape:pageopacity="0.0"
     inkscape:pagecheckerboard="0"
     inkscape:deskcolor="#d1d1d1"
     inkscape:document-units="mm"
     inkscape:zoom="0.68862935"
     inkscape:cx="187.32864"
     inkscape:cy="417.496"
     inkscape:window-width="1920"
     inkscape:window-height="991"
     inkscape:window-x="-9"
     inkscape:window-y="-9"
     inkscape:window-maximized="1"
     inkscape:current-layer="layer1" /><defs
     id="defs1"><pattern
       id="EMFhbasepattern"
       patternUnits="userSpaceOnUse"
       width="6"
       height="6"
       x="0"
       y="0" /></defs><g
     inkscape:label="Layer 1"
     inkscape:groupmode="layer"
     id="layer1"
     transform="translate(16.060753,45.031699)"><path
       style="fill:#000000"
       d="m 158.06365,244.85802 c -1.85716,-0.523 -3.7629,-1.50768 -6.15542,-3.18042 -3.12119,-2.18221 -4.12933,-2.62431 -5.95312,-2.61064 -1.26586,0.009 -2.00046,0.20856 -3.62569,0.98255 -3.00866,1.43281 -4.87646,1.83765 -7.86976,1.70572 -2.18415,-0.0963 -2.7431,-0.22287 -4.11497,-0.93211 -4.9724,-2.57068 -7.75068,-9.18785 -7.50021,-17.86359 0.0451,-1.56335 0.0247,-2.8614 -0.0453,-2.88455 -0.0701,-0.0231 -2.09191,0.1243 -4.49301,0.32767 -5.44239,0.46094 -19.990523,0.47044 -25.796872,0.0168 -13.335602,-1.0418 -27.82355,-3.36349 -35.888294,-5.75109 -0.295841,-0.0876 -0.759387,0.31507 -1.455208,1.26405 -3.244365,4.42478 -9.541241,11.21258 -12.396403,13.36287 -3.476876,2.61852 -6.409022,3.63081 -10.054924,3.47135 -3.827168,-0.16739 -5.162361,-0.93767 -9.790584,-5.64823 -4.739974,-4.82431 -4.559696,-4.76268 -11.155603,-3.81326 -6.7892198,0.97724 -11.53217661,-1.9631 -13.4891065,-8.36241 -0.6396814,-2.09181 -0.6370763,-7.8465 0.00484,-10.68918 1.17486261,-5.20282 3.8368614,-12.70487 6.6161127,-18.64555 l 1.2271809,-2.62311 -1.295704,-2.53626 C 1.3111578,173.55764 -0.29151859,166.70323 -0.27750991,158.59782 -0.263885,150.71447 1.3580551,143.2726 4.6892821,135.80894 l 1.2065741,-2.70334 -0.8028273,-2.33821 c -2.2016274,-6.41214 -1.2168414,-14.15845 2.3948786,-18.83806 0.2678502,-0.34705 0.4870004,-0.86648 0.4870004,-1.15429 0,-0.68373 1.6337436,-7.16624 2.4673641,-9.79024 0.358289,-1.127783 0.563656,-2.050518 0.456372,-2.050518 -0.107284,0 -0.89831,0.244768 -1.7578363,0.543929 C 4.3487336,101.14611 -1.0700096,101.61944 -4.7250914,100.6894 -11.504054,98.964498 -15.3672,94.107452 -16.000552,86.513025 c -0.546115,-6.548396 2.682576,-15.73319 7.2770986,-20.701471 7.1843904,-7.76883 18.7668964,-9.470418 29.5306524,-4.338353 2.567816,1.224313 5.93223,3.511943 7.741069,5.263532 l 1.126486,1.090834 1.783931,-1.730209 C 44.834047,53.124783 62.071817,45.133811 82.865702,42.266429 c 3.823824,-0.527288 5.443517,-0.599789 13.347743,-0.597477 5.574385,0.0016 9.837925,0.123361 11.209895,0.320061 l 2.21407,0.317429 2.15156,-1.943901 c 6.51925,-5.890044 14.83252,-11.302348 22.52447,-14.664417 9.67038,-4.226817 20.24029,-6.403421 31.09596,-6.403421 h 4.18468 l 0.94454,-1.103485 c 1.57935,-1.845108 2.53628,-5.028494 2.53628,-8.437327 0,-1.5344887 0.0972,-1.9112451 0.66861,-2.5902687 0.96585,-1.1478503 1.93908,-1.2754707 3.67301,-0.4816477 5.11729,2.3427705 9.68862,7.4027294 11.15573,12.3481454 0.36694,1.236927 0.75086,2.530485 0.85314,2.874574 0.14838,0.499175 0.66723,0.79735 2.56722,1.475334 9.25647,3.303056 15.19582,7.015165 31.74999,19.843832 11.99661,9.29678 17.94358,11.855958 33.86667,14.573938 8.5233,1.454879 12.44111,2.560704 15.86855,4.478988 5.71962,3.201185 7.18115,8.747891 4.08815,15.515105 -1.57481,3.445563 -1.39736,5.361208 0.69687,7.522971 2.27262,2.345897 3.05104,3.463171 3.56332,5.114478 0.62605,2.018031 0.6523,3.129657 0.12201,5.165586 -0.63313,2.430768 -1.44389,4.075753 -3.12884,6.348244 -1.89102,2.55042 -11.14229,11.97124 -21.10733,21.49419 l -7.30561,6.9815 -0.17427,1.78636 c -0.55589,5.69812 -2.47853,14.19889 -4.59292,20.30718 -6.84558,19.77625 -19.99719,36.18246 -38.16847,47.61392 -5.36236,3.37344 -17.57767,8.98047 -21.29896,9.77658 -0.76298,0.16323 -0.84886,0.33619 -2.21585,4.46257 -2.45588,7.41332 -7.21079,17.8591 -10.14385,22.28443 -2.51803,3.79914 -5.7692,6.68163 -8.93925,7.92556 -1.61893,0.63527 -5.05101,0.77769 -6.80917,0.28256 z m 16.07522,-20.90812 c 1.90111,-3.95611 3.31053,-7.20478 9.52749,-21.96041 1.34886,-3.20146 2.56826,-5.96967 2.70978,-6.15157 0.35255,-0.45316 1.11575,-0.41543 1.52301,0.0753 0.27485,0.33117 0.23177,1.07491 -0.23374,4.03489 -0.31389,1.99589 -0.57,3.70984 -0.56915,3.80879 0.004,0.43965 8.15016,-3.3097 12.25687,-5.64122 16.33588,-9.27442 28.68552,-22.06355 36.6269,-37.93035 5.30025,-10.58986 8.15257,-20.77678 9.4826,-33.86666 0.64892,-6.3865 0.64812,-18.17897 -0.002,-24.91964 -0.26912,-2.791739 -0.41472,-5.27026 -0.32356,-5.507824 0.11049,-0.287931 0.40883,-0.403976 0.89486,-0.34807 0.68839,0.07918 0.77713,0.251957 1.58909,3.0938 1.74199,6.096894 2.74906,12.471594 3.17577,20.102544 l 0.19758,3.53332 3.96733,-3.7979 c 2.18203,-2.08885 6.05153,-5.84469 8.59889,-8.34632 l 4.63156,-4.54841 -0.0395,-4.18284 c -0.0585,-6.202614 -0.65349,-10.896626 -2.23773,-17.654406 -1.13417,-4.837952 -3.81923,-12.929105 -5.5566,-16.744225 -0.41096,-0.902441 -0.92373,-2.063301 -1.13949,-2.579687 -0.21576,-0.516387 -0.49142,-0.938885 -0.61258,-0.938885 -0.73679,0 -9.39494,-1.652181 -11.71296,-2.235111 -10.05484,-2.52856 -16.01012,-5.55766 -25.79688,-13.121361 C 205.62086,36.163368 200.24639,32.63553 192.786,29.540503 c -8.80856,-3.654326 -20.77034,-5.473411 -31.08897,-4.727847 -15.97645,1.154363 -28.83279,5.992559 -41.28315,15.535988 -3.00195,2.301054 -3.67076,2.96524 -3.13629,3.114621 0.20171,0.05638 2.60825,0.644454 5.34788,1.306839 l 4.98113,1.204336 0.96606,-1.102885 c 3.68904,-4.211521 8.08916,-8.297497 11.1533,-10.357019 l 1.44413,-0.970652 2.26004,0.174817 c 3.24394,0.250925 10.08565,1.128455 12.14361,1.557561 4.37176,0.911559 5.07216,1.327501 5.05553,3.002304 -0.009,0.899805 -0.35604,1.374036 -3.72799,5.093229 -3.93937,4.345054 -9.22674,10.547355 -9.22674,10.823342 0,0.09059 1.20202,0.852822 2.67116,1.693854 3.71747,2.128132 7.83694,4.896777 8.02844,5.395815 0.23071,0.601224 -0.0707,1.358544 -0.66779,1.678118 -0.42189,0.22579 -1.22465,-0.08167 -4.41385,-1.690545 C 133.46859,51.271523 113.9293,46.602813 94.22907,47.159692 77.709603,47.626658 63.321851,51.379753 50.467841,58.574962 36.215893,66.552686 25.042701,78.834315 18.926155,93.245741 17.546966,96.4953 14.705797,104.64859 14.454501,106.07803 l -0.162799,0.92604 h 2.728582 c 2.392816,0 2.910896,0.0855 4.210152,0.69476 0.827049,0.38782 2.321002,1.48663 3.381703,2.48724 1.539643,1.45242 2.124393,2.24924 3.082212,4.20004 1.692373,3.44686 2.084574,5.18621 2.094035,9.28671 0.0094,4.08086 -0.372486,5.78029 -2.081065,9.26059 -2.051097,4.17799 -5.280973,6.82333 -9.220186,7.55153 -2.513646,0.46468 -5.916284,-0.38919 -8.056699,-2.02176 l -0.8808971,-0.6719 -0.621371,1.40744 c -1.7324216,3.92402 -3.3029611,10.08196 -3.8483934,15.08919 -1.2338907,11.3275 2.0384538,22.19277 9.3861455,31.16512 13.28542,16.22298 40.139888,26.54262 77.249609,29.68548 5.236475,0.44348 22.449651,0.4408 26.987501,-0.004 5.13277,-0.50335 4.8,-0.3718 5.0091,-1.98011 0.82327,-6.33198 3.33728,-14.68 5.56904,-18.49252 1.28271,-2.19125 1.794,-2.72572 2.38907,-2.49737 0.63122,0.24222 0.77492,0.94363 0.4357,2.12663 -1.15521,4.02868 -1.68193,6.21989 -2.13676,8.88918 -0.77115,4.52569 -1.60635,12.55248 -1.78948,17.19792 l -0.16166,4.10104 9.62999,0.007 c 7.79431,0.005 10.26044,0.0965 12.93729,0.47788 6.29722,0.89728 12.37586,2.25242 17.72708,3.95197 l 2.77812,0.88234 0.50701,-0.80733 c 0.27886,-0.44403 1.42246,-2.71233 2.54134,-5.04066 z M 58.684981,189.91606 c -4.329649,-0.55631 -9.920768,-2.40935 -13.323758,-4.41582 -1.21374,-0.71565 -1.503609,-0.76548 -5.486979,-0.94318 -17.864533,-0.79696 -26.296646,-5.08576 -28.097393,-14.29109 -1.649284,-8.43105 3.934031,-19.96719 12.671168,-26.18093 10.206998,-7.25908 23.19024,-6.84649 35.002444,1.11233 10.134758,6.82859 16.564433,17.64216 15.223679,25.60353 -1.172089,6.95983 -7.624151,11.58515 -18.260649,13.09059 -1.322825,0.18722 -2.314929,0.42382 -2.204675,0.52578 1.016713,0.94019 9.726501,1.61253 13.583484,1.04857 6.554332,-0.95837 12.733084,-3.9822 17.716633,-8.67037 l 2.155768,-2.02799 -0.686566,-0.50013 c -1.43016,-1.04179 -0.448797,-1.90186 1.97042,-1.72687 1.134991,0.0821 1.763159,0.29223 2.458071,0.82227 1.241998,0.94731 2.028084,2.09193 2.211068,3.21953 0.186572,1.14971 -0.432943,1.49969 -1.535033,0.86717 -0.728943,-0.41835 -0.741488,-0.41278 -1.697329,0.7537 -1.135087,1.38522 -4.590168,4.31829 -6.967213,5.91456 -2.379231,1.59774 -7.171059,3.83725 -9.876561,4.61591 -4.631195,1.33288 -10.22239,1.77788 -14.856579,1.18244 z m -3.396727,-11.20454 c 7.181412,-1.1319 11.825589,-3.45877 13.58696,-6.80747 0.489576,-0.93078 0.594223,-1.5407 0.580666,-3.38435 -0.06411,-8.71835 -10.21028,-19.50527 -21.75351,-23.12728 -8.519461,-2.67322 -16.96716,-0.62112 -23.31966,5.66478 -4.802917,4.75256 -7.502671,10.55161 -7.513801,16.13958 -0.0054,2.72769 0.412684,4.08239 1.835897,5.94832 2.298879,3.01399 8.831915,5.18533 17.8451,5.93107 4.470958,0.36992 15.431021,0.15664 18.738348,-0.36465 z m -7.916801,-7.01443 c -1.909965,-1.0095 -3.756096,-3.8746 -4.603313,-7.14412 -0.563642,-2.17516 -0.5833,-5.57713 -0.04297,-7.43581 1.12725,-3.87761 4.260076,-4.82226 7.025919,-2.11857 2.63103,2.57192 4.181418,7.96598 3.481802,12.11377 -0.696352,4.12845 -3.127251,6.02986 -5.861441,4.58473 z m -20.683642,-0.46917 c -1.102921,-1.1512 -1.555792,-2.78156 -1.560709,-5.61864 -0.0052,-3.01171 0.524456,-5.45447 1.73944,-8.02192 1.522795,-3.21791 3.720005,-4.90127 5.352576,-4.10081 1.032239,0.50612 1.615469,1.44398 2.109065,3.39148 1.444112,5.6978 -2.24235,15.08125 -5.924947,15.08125 -0.762874,0 -1.188659,-0.18153 -1.715425,-0.73136 z m 60.162646,-29.05558 c -6.975987,-1.87607 -11.935969,-9.50608 -11.935969,-18.36125 0,-10.83122 6.649736,-19.05597 15.406798,-19.05597 h 1.801872 l -0.498176,-0.99219 c -1.762885,-3.51104 -2.527339,-7.785029 -2.354361,-13.163022 0.148541,-4.618236 0.718878,-7.233778 2.327588,-10.674223 3.072275,-6.570478 8.190356,-10.645052 16.075201,-12.797686 3.02141,-0.824871 10.06747,-0.827576 13.34557,-0.0051 9.25427,2.32183 16.01007,8.157542 18.08548,15.622367 0.42218,1.518508 0.4254,1.693311 0.0383,2.080435 -0.62,0.620003 -1.12822,0.287473 -1.89557,-1.240288 -1.14673,-2.283088 -2.44623,-4.059747 -4.18467,-5.721192 -4.91663,-4.698882 -10.83026,-7.019076 -17.93134,-7.0353 -8.86285,-0.02025 -15.776222,3.954253 -19.023862,10.936833 -1.552682,3.338338 -2.014607,5.728161 -1.98882,10.289387 0.02537,4.487436 0.611109,7.247604 2.133608,10.054159 1.951693,3.59774 4.486824,5.3116 8.140554,5.50338 2.69103,0.14123 4.7388,-0.34582 7.9604,-1.89334 3.4765,-1.66998 7.29383,-4.68571 12.88025,-10.175592 4.93832,-4.852965 5.49534,-5.240019 6.11795,-4.25122 0.21158,0.336008 -0.12357,1.018491 -1.55914,3.175 -1.00576,1.510843 -1.86556,2.887575 -1.91067,3.059403 -0.0451,0.171829 0.23406,0.790035 0.62037,1.373791 1.04168,1.574078 0.31495,2.180068 -1.3211,1.101618 l -0.78275,-0.515964 -2.92142,3.079404 c -6.1484,6.48092 -12.0646,9.57101 -18.54026,9.68376 l -2.65426,0.0462 0.83804,1.71979 c 4.66782,9.57912 1.45795,22.20179 -6.855284,26.95814 -2.714366,1.55301 -6.367301,2.01811 -9.414299,1.19867 z m 7.014937,-4.97179 c 1.7768,-0.92274 3.343736,-2.42426 4.454025,-4.26808 1.079205,-1.7922 1.183717,-2.87722 0.361447,-3.75249 -0.726542,-0.77337 -1.070423,-0.76672 -3.559448,0.0688 -2.979643,1.00023 -5.969413,1.13399 -8.829848,0.39503 -1.236927,-0.31954 -2.362067,-0.69241 -2.500312,-0.8286 -0.833271,-0.82088 -3.055937,0.3699 -3.055937,1.63719 0,0.95182 1.540537,3.4394 3.011037,4.86207 3.048544,2.94938 6.744907,3.63834 10.119036,1.88606 z m -1.046275,-18.19498 c 2.414093,-0.73312 4.259435,-3.19742 3.976109,-5.30978 -0.584082,-4.35466 -7.479418,-6.2831 -11.500202,-3.2163 -1.957247,1.49287 -2.4958,3.8838 -1.338596,5.94277 1.400046,2.49104 5.36289,3.64614 8.862689,2.58331 z M 45.55955,218.98562 c 3.038714,-3.49609 4.803005,-5.80063 4.587203,-5.99188 -0.129464,-0.11473 -1.545076,-0.65264 -3.145805,-1.19536 -15.057425,-5.10512 -27.446019,-12.55643 -34.989627,-21.04506 -1.10344,-1.24167 -2.0923958,-2.29279 -2.1976796,-2.33581 -0.4249398,-0.17365 -4.4762629,10.31505 -5.4095624,14.00512 -0.2341888,0.92594 -0.4820842,1.87614 -0.5508788,2.11156 -0.099913,0.34192 0.1557645,0.46428 1.2707092,0.60814 3.8627734,0.49839 12.5645136,2.77377 17.6676646,4.61984 6.918273,2.50268 14.821385,6.37866 19.579165,9.60233 0.800365,0.5423 1.574271,0.99069 1.719792,0.99642 0.145521,0.006 0.80658,-0.61315 1.469019,-1.3753 z M 19.823212,135.92177 c 1.525435,-0.71396 3.475219,-2.6935 4.387948,-4.45492 0.634286,-1.22407 0.704871,-1.55535 0.4634,-2.17488 -0.423778,-1.08727 -1.413213,-1.44938 -2.519203,-0.92197 -2.494578,1.18958 -6.961118,1.27605 -9.980368,0.1932 -1.64866,-0.59128 -1.792285,-0.60301 -2.4120808,-0.1969 -0.9965691,0.65298 -1.0383126,1.35334 -0.1818114,3.05038 1.3368732,2.64884 3.6780142,4.59208 6.1055592,5.06786 1.447776,0.28375 2.688559,0.11495 4.136556,-0.56277 z m 0.07637,-16.81301 c 2.526563,-1.27997 3.405543,-3.37844 2.325738,-5.55244 -0.954175,-1.92106 -2.424578,-2.81514 -4.829519,-2.93658 -3.690621,-0.18637 -6.245895,1.68111 -6.245895,4.5647 0,3.74488 4.828812,5.91066 8.749676,3.92432 z M 3.2784498,95.383378 C 5.9355529,94.87499 8.8517311,93.869207 11.623555,92.505169 l 2.304478,-1.134053 1.413926,-2.766854 c 3.016945,-5.903737 6.048398,-10.757761 9.345423,-14.964079 l 1.265012,-1.613891 -1.381973,-1.381461 c -2.669605,-2.668615 -6.647756,-4.85638 -10.906972,-5.998237 -1.384115,-0.371069 -2.754592,-0.495523 -5.4239578,-0.492555 -3.3033144,0.0037 -3.7433108,0.06473 -5.8519878,0.812069 -4.344587,1.539771 -7.4989434,4.240547 -9.698134,8.303592 -4.2261214,7.807837 -4.2932634,16.472398 -0.1557954,20.105143 2.3895687,2.098069 6.3791413,2.843838 10.7448758,2.008535 z M 139.68047,43.373651 c 2.77174,-2.763869 4.96024,-5.06492 4.86333,-5.113447 -0.0969,-0.04853 -0.66093,-0.116465 -1.25339,-0.150976 -0.97152,-0.05659 -1.28302,0.104709 -3.175,1.644038 -2.14882,1.748292 -7.95761,7.507069 -7.76252,7.695682 0.13196,0.127582 1.89524,0.898145 2.12431,0.928337 0.0901,0.01187 2.43154,-2.239764 5.20327,-5.003634 z M 183.39365,20.58851 c 0,-0.727919 -1.8607,-3.679426 -3.27148,-5.189336 -0.85343,-0.913396 -1.63328,-1.660721 -1.733,-1.660721 -0.0997,0 -0.32459,0.68461 -0.49971,1.521355 -0.17511,0.836744 -0.61819,2.163736 -0.98462,2.94887 -0.36643,0.785133 -0.63392,1.450433 -0.59444,1.478443 0.0757,0.05373 6.18561,1.105066 6.75252,1.161916 0.1819,0.01824 0.33073,-0.099 0.33073,-0.260527 z M 51.101989,33.593645 C 43.603814,32.218068 34.948763,27.948292 28.388089,22.388248 20.303367,15.536604 16.267624,6.6266335 18.448776,0.44458936 19.19042,-1.6574538 23.939163,-9.6181197 25.239812,-10.939722 c 5.203013,-5.286832 16.897513,-5.156539 28.375719,0.316145 5.730664,2.7323187 10.057105,5.7252901 14.068007,9.73204967 6.242663,6.23621653 9.258119,13.32389533 7.914977,18.60375833 -0.500341,1.966829 -5.254728,10.535262 -6.769444,12.2 -1.183392,1.300599 -3.624294,2.743942 -5.820833,3.441946 -2.544166,0.808472 -8.186101,0.921947 -11.906249,0.239468 z m 10.148267,-4.396687 c 1.734165,-0.444286 3.452479,-1.324305 4.201156,-2.151583 0.449606,-0.496808 0.387885,-0.504195 -3.307614,-0.39584 C 54.814764,26.864428 47.634721,24.805346 40.096259,20.326774 34.907329,17.244051 31.710257,14.551155 27.514058,9.7287785 26.343759,8.3838419 23.056157,2.438564 23.056157,1.6671399 c 0,-0.2002564 -0.110621,-0.3641025 -0.245825,-0.3641025 -0.135204,0 -0.380061,0.6466108 -0.544127,1.4369128 -0.516681,2.4888408 0.287886,5.5193359 2.231602,8.4055888 0.51678,0.767374 0.9396,1.533146 0.9396,1.701715 0,0.383986 4.761387,5.193105 6.920842,6.990222 5.295739,4.407158 13.221867,8.220637 19.405198,9.336375 2.936605,0.52989 7.465642,0.540921 9.486809,0.02311 z m 4.474727,-7.48521 c 4.099814,-1.136844 5.975272,-3.584602 5.681648,-7.415415 C 71.226592,11.947425 70.415917,9.9357257 68.479481,7.0325764 62.659548,-1.6927981 49.70598,-9.3657778 39.253037,-10.279558 25.686626,-11.465512 22.434486,-2.9535375 32.161641,8.2810801 37.426027,14.361313 47.951867,20.306622 56.049246,21.773513 c 3.109371,0.563282 7.523234,0.535106 9.675737,-0.06177 z m 55.094707,-8.335067 c -6.48235,-2.101141 -11.33037,-9.7502579 -13.27001,-20.9371848 -0.69236,-3.9931882 -0.6209,-12.6951122 0.13882,-16.9064502 1.90683,-10.56999 6.98841,-18.286189 13.24536,-20.112602 2.06528,-0.602857 12.25847,-0.602857 14.32375,0 8.13505,2.374632 14.00479,14.539373 14.00479,29.024214 0,11.2785831 -3.72489,21.6973957 -9.46689,26.479643 -0.6868,0.572008 -2.02264,1.40943 -2.96853,1.860938 l -1.71979,0.820923 -6.61458,0.05678 c -4.83248,0.04148 -6.89972,-0.03564 -7.67292,-0.28626 z m 14.36493,-4.6763304 c 2.46568,-1.0819403 5.28928,-4.7755881 6.96953,-9.11710477 3.10235,-8.01599143 3.50266,-18.68548883 1.02435,-27.30218883 -2.29008,-7.962281 -6.36332,-12.793099 -10.77275,-12.776373 -1.93418,0.0073 -3.3683,0.645422 -5.10802,2.272732 -3.25346,3.043232 -5.64811,8.589449 -6.89858,15.977706 -0.42126,2.48902 -0.42313,10.880646 -0.003,13.3614576 1.19865,7.0773313 3.38133,12.2247912 6.60032,15.5656416 2.55928,2.6561772 5.2325,3.3150467 8.18811,2.0181294 z M 122.05835,7.9468412 c -1.32362,-1.6744987 -3.22575,-5.3845978 -4.22011,-8.23130371 -1.39367,-3.98983239 -2.42842,-10.50409049 -2.4376,-15.34583249 -0.005,-2.787099 0.69541,-8.960176 1.18294,-10.421689 0.19956,-0.598227 0.44067,-1.563935 0.53581,-2.146019 0.29662,-1.814717 0.67038,-2.81832 2.15926,-5.79795 1.44429,-2.890384 2.60747,-4.79414 3.61025,-5.908818 0.29404,-0.326848 0.47502,-0.653866 0.40218,-0.726706 -0.0728,-0.07284 -0.77509,0.05841 -1.56055,0.291667 -1.18138,0.350834 -1.77196,0.773496 -3.41843,2.446497 -2.13824,2.172695 -2.95683,3.586368 -4.61827,7.975519 -2.86959,7.580868 -2.97529,19.55225 -0.24529,27.7812483 2.0799,6.269407 6.0262,11.087941 9.29554,11.3500719 0.18528,0.014856 -0.1233,-0.5551523 -0.68573,-1.266685 z"
       id="path1"
       sodipodi:nodetypes="sscscsccscssssssssscssscssssssssssscsscscssscsscssssssssssssscsssssssscsssscssscsssscssccssssssssssscsscsscssssscsssscsssscssscssssccssssscccscsccsssssssscsscsssssssssssssscssssssssssscsssssssscsssscscssssssssssscsscsccsssscsscssssccssssssscssssssscssssssssssssssssscsscsscssssssssssssssssssssssssssssssssssssssssssssssssssssssssssscsssssscsscssssscsssscssssss" /></g></svg>
